<svg width="253" height="481" viewBox="0 0 253 481" fill="none" xmlns="http://www.w3.org/2000/svg">
<mask id="path-1-inside-1_64_1298" fill="white">
<path fill-rule="evenodd" clip-rule="evenodd" d="M253 121H190H127V241H190V361H127V481H190H253V361V241V121Z"/>
</mask>
<path d="M253 121V120H254V121H253ZM127 121H126V120H127V121ZM127 241V242H126V241H127ZM190 241V240H191V241H190ZM190 361H191V362H190V361ZM127 361H126V360H127V361ZM127 481V482H126V481H127ZM253 481H254V482H253V481ZM190 120H253V122H190V120ZM127 120H190V122H127V120ZM126 241V121H128V241H126ZM190 242H127V240H190V242ZM189 361V241H191V361H189ZM190 362H127V360H190V362ZM128 361V481H126V361H128ZM127 480H190V482H127V480ZM253 482H190V480H253V482ZM254 361V481H252V361H254ZM254 241V361H252V241H254ZM254 121V241H252V121H254Z" fill="#C778DD" mask="url(#path-1-inside-1_64_1298)"/>
<mask id="path-3-outside-2_64_1298" maskUnits="userSpaceOnUse" x="0" y="0" width="128" height="362" fill="black">
<rect fill="white" width="128" height="362"/>
<path fill-rule="evenodd" clip-rule="evenodd" d="M127 1H64H1V121V241V361H64H127V241H64V121H127V1Z"/>
</mask>
<path d="M127 1V0H128V1H127ZM1 1H0V0H1V1ZM1 361V362H0V361H1ZM127 361H128V362H127V361ZM127 241V240H128V241H127ZM64 241V242H63V241H64ZM64 121H63V120H64V121ZM127 121H128V122H127V121ZM64 0H127V2H64V0ZM1 0H64V2H1V0ZM0 121V1H2V121H0ZM0 241V121H2V241H0ZM0 361V241H2V361H0ZM64 362H1V360H64V362ZM64 360H127V362H64V360ZM126 361V241H128V361H126ZM127 242H64V240H127V242ZM65 121V241H63V121H65ZM127 122H64V120H127V122ZM128 1V121H126V1H128Z" fill="#C778DD" mask="url(#path-3-outside-2_64_1298)"/>
</svg>
